<svg width="36" height="37" viewBox="0 0 36 37" fill="none" xmlns="http://www.w3.org/2000/svg">
<path d="M30.6667 13.625C31.5066 13.625 32.3121 13.9674 32.9059 14.5769C33.4998 15.1864 33.8334 16.013 33.8334 16.875V33.5897C33.8334 33.8179 33.7674 34.041 33.6439 34.2307C33.5204 34.4204 33.3448 34.5682 33.1394 34.6555C32.934 34.7428 32.708 34.7657 32.49 34.7212C32.2719 34.6767 32.0716 34.5668 31.9144 34.4055L28.4279 30.8273C27.8342 30.2177 27.0289 29.8752 26.1891 29.875H14.8334C13.9936 29.875 13.1881 29.5326 12.5942 28.9231C12.0004 28.3136 11.6667 27.487 11.6667 26.625V25M24.3334 15.25C24.3334 16.112 23.9998 16.9386 23.4059 17.5481C22.8121 18.1576 22.0066 18.5 21.1667 18.5H9.81108C8.9713 18.5002 8.16597 18.8427 7.57225 19.4523L4.08575 23.0305C3.92853 23.1918 3.72824 23.3017 3.51019 23.3462C3.29214 23.3907 3.06613 23.3678 2.86073 23.2805C2.65534 23.1932 2.47978 23.0454 2.35625 22.8557C2.23272 22.666 2.16678 22.4429 2.16675 22.2148V5.5C2.16675 4.63805 2.50038 3.8114 3.09424 3.2019C3.68811 2.59241 4.49356 2.25 5.33341 2.25H21.1667C22.0066 2.25 22.8121 2.59241 23.4059 3.2019C23.9998 3.8114 24.3334 4.63805 24.3334 5.5V15.25Z" stroke="#8A1717" stroke-width="3" stroke-linecap="round" stroke-linejoin="round"/>
</svg>
