<svg width="38" height="39" viewBox="0 0 38 39" fill="none" xmlns="http://www.w3.org/2000/svg">
<path d="M19.0001 13V19.5M19.0001 26H19.0159M4.73741 26.5557C4.97023 27.1585 5.02206 27.8189 4.88625 28.4521L3.2 33.7984C3.14566 34.0695 3.15971 34.3504 3.24081 34.6144C3.32191 34.8783 3.46736 35.1167 3.66339 35.3068C3.85941 35.4969 4.0995 35.6325 4.3609 35.7007C4.62229 35.7688 4.89632 35.7674 5.157 35.6964L10.5609 34.0746C11.1431 33.9561 11.7461 34.0079 12.301 34.2241C15.682 35.8446 19.5121 36.1874 23.1154 35.1922C26.7187 34.1969 29.8638 31.9274 31.9956 28.7842C34.1275 25.641 35.1091 21.826 34.7674 18.0124C34.4257 14.1987 32.7825 10.6315 30.1279 7.94006C27.4732 5.24862 23.9776 3.60593 20.2579 3.30182C16.5381 2.99772 12.8332 4.05174 9.79686 6.27792C6.76052 8.5041 4.58784 11.7594 3.66216 15.4694C2.73648 19.1794 3.1173 23.1058 4.73741 26.5557Z" stroke="#8A1717" stroke-width="3" stroke-linecap="round" stroke-linejoin="round"/>
</svg>
