<svg width="32" height="35" viewBox="0 0 32 35" fill="none" xmlns="http://www.w3.org/2000/svg">
<path d="M6.5 19.75C6.5 23.9692 7.83338 28.0746 10.3 31.45C10.8039 32.1396 11.5541 32.5954 12.3855 32.7173C13.2169 32.8392 14.0615 32.6172 14.7333 32.1C15.4052 31.5828 15.8494 30.8129 15.9682 29.9596C16.0869 29.1063 15.8706 28.2396 15.3667 27.55C13.7223 25.2997 12.8333 22.5628 12.8333 19.75M9.66667 6.75V19.75M14.4167 6.75C19.2322 6.87731 23.9387 5.2672 27.7167 2.2C27.9519 2.01893 28.2316 1.90867 28.5245 1.88157C28.8173 1.85447 29.1118 1.9116 29.3748 2.04656C29.6378 2.18152 29.8589 2.38898 30.0135 2.64569C30.1681 2.9024 30.25 3.19822 30.25 3.5V23C30.25 23.3018 30.1681 23.5976 30.0135 23.8543C29.8589 24.111 29.6378 24.3185 29.3748 24.4534C29.1118 24.5884 28.8173 24.6455 28.5245 24.6184C28.2316 24.5913 27.9519 24.4811 27.7167 24.3C23.9387 21.2328 19.2322 19.6227 14.4167 19.75H4.91667C4.07681 19.75 3.27136 19.4076 2.6775 18.7981C2.08363 18.1886 1.75 17.362 1.75 16.5V10C1.75 9.13805 2.08363 8.3114 2.6775 7.7019C3.27136 7.09241 4.07681 6.75 4.91667 6.75H14.4167Z" stroke="#8A1717" stroke-width="3" stroke-linecap="round" stroke-linejoin="round"/>
</svg>
