<svg width="473" height="473" viewBox="0 0 473 473" fill="none" xmlns="http://www.w3.org/2000/svg">
<circle cx="236.5" cy="236.5" r="236.5" fill="white"/>
<path d="M108.08 199.156C105.65 195.574 108.08 188 108.08 188H153.024C153.024 188 155.22 195.42 153.024 199.156C151.988 200.917 149.38 202.875 149.38 202.875V293.365C149.38 293.365 152.15 296.073 153.024 298.323C154.247 301.473 153.024 307 153.024 307H108.08C108.08 307 106.676 301.394 108.08 298.323C109.215 295.841 112.939 293.365 112.939 293.365V202.875C112.939 202.875 109.43 201.146 108.08 199.156Z" fill="#8A1717"/>
<path d="M181.08 199.156C178.65 195.574 181.08 188 181.08 188H226.024C226.024 188 228.22 195.42 226.024 199.156C224.988 200.917 222.38 202.875 222.38 202.875V293.365C222.38 293.365 225.15 296.073 226.024 298.323C227.247 301.473 226.024 307 226.024 307H181.08C181.08 307 179.676 301.394 181.08 298.323C182.215 295.841 185.939 293.365 185.939 293.365V202.875C185.939 202.875 182.43 201.146 181.08 199.156Z" fill="#8A1717"/>
<path d="M253.103 199.156C250.621 195.574 253.103 188 253.103 188H299.003C299.003 188 301.246 195.42 299.003 199.156C297.945 200.917 295.281 202.875 295.281 202.875V293.365C295.281 293.365 298.111 296.073 299.003 298.323C300.252 301.473 299.003 307 299.003 307H253.103C253.103 307 251.669 301.394 253.103 298.323C254.262 295.841 258.065 293.365 258.065 293.365V202.875C258.065 202.875 254.482 201.146 253.103 199.156Z" fill="#8A1717"/>
<path d="M326.103 199.156C323.621 195.574 326.103 188 326.103 188H372.003C372.003 188 374.246 195.42 372.003 199.156C370.945 200.917 368.281 202.875 368.281 202.875V293.365C368.281 293.365 371.111 296.073 372.003 298.323C373.252 301.473 372.003 307 372.003 307H326.103C326.103 307 324.669 301.394 326.103 298.323C327.262 295.841 331.065 293.365 331.065 293.365V202.875C331.065 202.875 327.482 201.146 326.103 199.156Z" fill="#8A1717"/>
<path d="M236.379 69L80 134.471V153H394V134.471L236.379 69Z" fill="#8A1717"/>
<rect x="68" y="339" width="337" height="27" fill="#8A1717"/>
<rect x="90" y="314" width="295" height="17" fill="#8A1717"/>
<rect x="90" y="158" width="295" height="22" fill="#8A1717"/>
</svg>
