<svg width="337" height="297" viewBox="0 0 337 297" fill="none" xmlns="http://www.w3.org/2000/svg">
<path d="M40.0801 130.156C37.6499 126.574 40.0801 119 40.0801 119H85.0238C85.0238 119 87.2203 126.42 85.0238 130.156C83.9883 131.917 81.3797 133.875 81.3797 133.875V224.365C81.3797 224.365 84.1501 227.073 85.0238 229.323C86.2469 232.473 85.0238 238 85.0238 238H40.0801C40.0801 238 38.6758 232.394 40.0801 229.323C41.2148 226.841 44.9388 224.365 44.9388 224.365V133.875C44.9388 133.875 41.4301 132.146 40.0801 130.156Z" fill="#8A1717"/>
<path d="M113.08 130.156C110.65 126.574 113.08 119 113.08 119H158.024C158.024 119 160.22 126.42 158.024 130.156C156.988 131.917 154.38 133.875 154.38 133.875V224.365C154.38 224.365 157.15 227.073 158.024 229.323C159.247 232.473 158.024 238 158.024 238H113.08C113.08 238 111.676 232.394 113.08 229.323C114.215 226.841 117.939 224.365 117.939 224.365V133.875C117.939 133.875 114.43 132.146 113.08 130.156Z" fill="#8A1717"/>
<path d="M185.103 130.156C182.621 126.574 185.103 119 185.103 119H231.003C231.003 119 233.246 126.42 231.003 130.156C229.945 131.917 227.281 133.875 227.281 133.875V224.365C227.281 224.365 230.111 227.073 231.003 229.323C232.252 232.473 231.003 238 231.003 238H185.103C185.103 238 183.669 232.394 185.103 229.323C186.262 226.841 190.065 224.365 190.065 224.365V133.875C190.065 133.875 186.482 132.146 185.103 130.156Z" fill="#8A1717"/>
<path d="M258.103 130.156C255.621 126.574 258.103 119 258.103 119H304.003C304.003 119 306.246 126.42 304.003 130.156C302.945 131.917 300.281 133.875 300.281 133.875V224.365C300.281 224.365 303.111 227.073 304.003 229.323C305.252 232.473 304.003 238 304.003 238H258.103C258.103 238 256.669 232.394 258.103 229.323C259.262 226.841 263.065 224.365 263.065 224.365V133.875C263.065 133.875 259.482 132.146 258.103 130.156Z" fill="#8A1717"/>
<path d="M168.379 0L12 65.4706V84H326V65.4706L168.379 0Z" fill="#8A1717"/>
<rect y="270" width="337" height="27" fill="#8A1717"/>
<rect x="22" y="245" width="295" height="17" fill="#8A1717"/>
<rect x="22" y="89" width="295" height="22" fill="#8A1717"/>
</svg>
