<svg width="14" height="15" viewBox="0 0 14 15" fill="none" xmlns="http://www.w3.org/2000/svg">
<path d="M5.02167 12.0016C2.01442 12.9038 2.01442 10.498 0.811523 10.1973M9.23181 13.806V11.4784C9.25438 11.1916 9.21563 10.9033 9.11815 10.6326C9.02067 10.3619 8.86669 10.1151 8.66645 9.90858C10.555 9.69807 12.5398 8.98235 12.5398 5.69844C12.5396 4.85871 12.2166 4.05119 11.6376 3.443C11.9118 2.70834 11.8924 1.89628 11.5835 1.17554C11.5835 1.17554 10.8738 0.965031 9.23181 2.06568C7.8533 1.69208 6.40019 1.69208 5.02167 2.06568C3.37971 0.965031 2.67 1.17554 2.67 1.17554C2.36108 1.89628 2.3417 2.70834 2.61587 3.443C2.03254 4.0557 1.7092 4.87052 1.7137 5.71648C1.7137 8.97634 3.69848 9.69206 5.58703 9.92663C5.38915 10.1311 5.23654 10.3749 5.13914 10.6423C5.04173 10.9097 5.00171 11.1945 5.02167 11.4784V13.806" stroke="black" stroke-linecap="round" stroke-linejoin="round"/>
</svg>
