<svg width="14" height="14" viewBox="0 0 14 14" fill="none" xmlns="http://www.w3.org/2000/svg">
<path d="M10.1809 1.15942H4.16643C2.50557 1.15942 1.15918 2.50581 1.15918 4.16667V10.1812C1.15918 11.842 2.50557 13.1884 4.16643 13.1884H10.1809C11.8418 13.1884 13.1882 11.842 13.1882 10.1812V4.16667C13.1882 2.50581 11.8418 1.15942 10.1809 1.15942Z" stroke="black" stroke-linecap="round" stroke-linejoin="round"/>
<path d="M9.58001 6.79497C9.65423 7.29553 9.56874 7.80674 9.33567 8.2559C9.10261 8.70506 8.73386 9.0693 8.28186 9.29681C7.82985 9.52431 7.31762 9.6035 6.81802 9.52311C6.31842 9.44271 5.85689 9.20684 5.49908 8.84902C5.14126 8.4912 4.90538 8.02967 4.82499 7.53007C4.7446 7.03047 4.82379 6.51824 5.05129 6.06624C5.2788 5.61424 5.64303 5.24549 6.09219 5.01242C6.54136 4.77936 7.05257 4.69386 7.55312 4.76809C8.06371 4.8438 8.5364 5.08172 8.90139 5.44671C9.26637 5.81169 9.50429 6.28439 9.58001 6.79497Z" stroke="black" stroke-linecap="round" stroke-linejoin="round"/>
<path d="M10.4819 3.86597H10.4883" stroke="black" stroke-linecap="round" stroke-linejoin="round"/>
</svg>
