<svg width="15" height="14" viewBox="0 0 15 14" fill="none" xmlns="http://www.w3.org/2000/svg">
<path d="M9.90557 4.76807C10.8627 4.76807 11.7805 5.14827 12.4573 5.82503C13.1341 6.50179 13.5143 7.41968 13.5143 8.37676V12.5869H11.1085V8.37676C11.1085 8.05773 10.9817 7.75177 10.7561 7.52618C10.5306 7.3006 10.2246 7.17386 9.90557 7.17386C9.58654 7.17386 9.28058 7.3006 9.05499 7.52618C8.82941 7.75177 8.70267 8.05773 8.70267 8.37676V12.5869H6.29688V8.37676C6.29688 7.41968 6.67708 6.50179 7.35384 5.82503C8.0306 5.14827 8.94849 4.76807 9.90557 4.76807Z" stroke="#BFFB75" stroke-linecap="round" stroke-linejoin="round"/>
<path d="M3.89115 5.36951H1.48535V12.5869H3.89115V5.36951Z" stroke="#BFFB75" stroke-linecap="round" stroke-linejoin="round"/>
<path d="M2.68825 3.56522C3.35259 3.56522 3.89115 3.02666 3.89115 2.36232C3.89115 1.69798 3.35259 1.15942 2.68825 1.15942C2.02391 1.15942 1.48535 1.69798 1.48535 2.36232C1.48535 3.02666 2.02391 3.56522 2.68825 3.56522Z" stroke="#BFFB75" stroke-linecap="round" stroke-linejoin="round"/>
</svg>
